# xmcd CD database file
#
# Track frame offsets:
#	150
#	18328
#	34371
#	49742
#	66574
#	84322
#	107119
#	123857
#	139097
#	154701
#	173872
#	191029
#
# Disc length: 2737 seconds
#
# Revision: 0
# Processed by: cddbd v1.5.2PL0 Copyright (c) Steve Scherf et al.
# Submitted via: CDex 1.51
#
DISCID=a30aaf0c
DTITLE=James Blundell - The Essential
DYEAR=2008
DGENRE=Country
TTITLE0=Way Out West
TTITLE1=Age of Grace
TTITLE2=Walk On
TTITLE3=Time On His Hands
TTITLE4=Down on the Farm
TTITLE5=Rain on a Tin Roof
TTITLE6=Kimberley Moon
TTITLE7=Cloncurry Cattle Song
TTITLE8=The Valley
TTITLE9=Blue Heeler
TTITLE10=This Road
TTITLE11=The Old Man's Gone
EXTD=YEAR: 2008
EXTT0=
EXTT1=
EXTT2=
EXTT3=
EXTT4=
EXTT5=
EXTT6=
EXTT7=
EXTT8=
EXTT9=
EXTT10=
EXTT11=
PLAYORDER=
